<?xml version="1.0" encoding="utf-8"?>
<!-- Generator: Adobe Illustrator 16.0.0, SVG Export Plug-In . SVG Version: 6.00 Build 0)  -->
<!DOCTYPE svg PUBLIC "-//W3C//DTD SVG 1.1//EN" "http://www.w3.org/Graphics/SVG/1.1/DTD/svg11.dtd">
<svg version="1.1" id="Layer_1" xmlns="http://www.w3.org/2000/svg" xmlns:xlink="http://www.w3.org/1999/xlink" x="0px" y="0px"
	 width="360px" height="75.204px" viewBox="0 0 360 75.204" enable-background="new 0 0 360 75.204" xml:space="preserve">
<g>
	<path fill="#6D656B" d="M121.215,52.112c0.368,0,0.701,0.15,1,0.449l2.623,2.864c-2.024,2.346-4.48,4.174-7.367,5.485
		c-2.887,1.311-6.367,1.967-10.438,1.967c-3.565,0-6.798-0.614-9.695-1.848c-2.898-1.229-5.372-2.954-7.419-5.174
		c-2.048-2.219-3.635-4.883-4.762-7.988s-1.691-6.521-1.691-10.248c0-3.726,0.604-7.143,1.812-10.248
		c1.208-3.105,2.904-5.774,5.09-8.006c2.186-2.23,4.802-3.962,7.851-5.193c3.046-1.23,6.412-1.846,10.092-1.846
		c3.635,0,6.769,0.564,9.402,1.691s4.974,2.656,7.022,4.589l-2.174,3.071c-0.161,0.23-0.345,0.42-0.552,0.569
		s-0.506,0.224-0.897,0.224c-0.299,0-0.616-0.109-0.95-0.328c-0.333-0.219-0.73-0.489-1.19-0.811c-0.46-0.322-1-0.667-1.621-1.035
		c-0.621-0.367-1.358-0.713-2.208-1.035c-0.851-0.322-1.84-0.592-2.967-0.811c-1.127-0.218-2.427-0.328-3.899-0.328
		c-2.646,0-5.067,0.455-7.264,1.363c-2.196,0.909-4.088,2.203-5.676,3.882c-1.587,1.68-2.824,3.727-3.709,6.142
		c-0.886,2.416-1.328,5.119-1.328,8.109c0,3.083,0.442,5.831,1.328,8.247s2.093,4.458,3.624,6.125
		c1.53,1.668,3.342,2.939,5.434,3.812c2.093,0.873,4.348,1.311,6.763,1.311c1.472,0,2.795-0.087,3.968-0.258
		c1.174-0.174,2.261-0.443,3.261-0.812c1.001-0.366,1.933-0.832,2.795-1.396c0.861-0.564,1.73-1.236,2.604-2.019
		C120.467,52.285,120.847,52.112,121.215,52.112z"/>
	<path fill="#6D656B" d="M146.818,26.82c2.553,0,4.859,0.426,6.917,1.276c2.059,0.851,3.807,2.06,5.246,3.623
		c1.437,1.565,2.542,3.457,3.312,5.676c0.771,2.22,1.156,4.699,1.156,7.435c0,2.762-0.386,5.246-1.156,7.454
		c-0.771,2.208-1.875,4.094-3.312,5.659c-1.438,1.563-3.187,2.766-5.246,3.605c-2.058,0.84-4.364,1.259-6.917,1.259
		c-2.554,0-4.86-0.419-6.919-1.259s-3.813-2.042-5.262-3.605c-1.449-1.565-2.565-3.451-3.347-5.659s-1.173-4.692-1.173-7.454
		c0-2.736,0.391-5.215,1.173-7.435c0.782-2.22,1.898-4.111,3.347-5.676c1.449-1.563,3.203-2.772,5.262-3.623
		C141.958,27.246,144.264,26.82,146.818,26.82z M146.818,58.011c3.45,0,6.026-1.154,7.728-3.466c1.703-2.312,2.554-5.539,2.554-9.68
		c0-4.163-0.851-7.406-2.554-9.73c-1.702-2.323-4.278-3.485-7.728-3.485c-1.749,0-3.267,0.299-4.556,0.897
		c-1.288,0.599-2.363,1.461-3.226,2.588c-0.863,1.128-1.507,2.513-1.933,4.158c-0.425,1.645-0.638,3.502-0.638,5.572
		c0,2.071,0.212,3.923,0.638,5.557c0.426,1.633,1.07,3.007,1.933,4.123c0.863,1.115,1.938,1.971,3.226,2.569
		C143.551,57.712,145.069,58.011,146.818,58.011z"/>
	<path fill="#6D656B" d="M171.041,62.325V27.372h3.657c0.874,0,1.426,0.426,1.656,1.276l0.483,3.796
		c1.519-1.679,3.215-3.036,5.09-4.071s4.042-1.553,6.505-1.553c1.909,0,3.594,0.317,5.055,0.949c1.461,0.633,2.68,1.529,3.659,2.691
		c0.977,1.162,1.717,2.56,2.224,4.192c0.505,1.634,0.759,3.439,0.759,5.417v22.255h-6.141V40.07c0-2.645-0.604-4.698-1.812-6.16
		c-1.208-1.46-3.054-2.191-5.539-2.191c-1.817,0-3.514,0.437-5.09,1.312c-1.576,0.874-3.03,2.059-4.365,3.554v25.74H171.041z"/>
	<path fill="#6D656B" d="M233.254,33.583c-0.184,0.253-0.367,0.449-0.552,0.587c-0.184,0.137-0.448,0.207-0.793,0.207
		s-0.721-0.143-1.123-0.431c-0.402-0.287-0.914-0.604-1.535-0.949c-0.621-0.345-1.375-0.661-2.26-0.949
		c-0.886-0.288-1.974-0.432-3.261-0.432c-1.702,0-3.209,0.305-4.521,0.915c-1.311,0.609-2.409,1.489-3.294,2.64
		c-0.887,1.15-1.554,2.542-2.002,4.175c-0.448,1.634-0.673,3.463-0.673,5.485c0,2.118,0.241,3.998,0.725,5.643
		c0.483,1.646,1.161,3.025,2.036,4.141c0.874,1.117,1.938,1.967,3.191,2.553s2.663,0.88,4.227,0.88c1.496,0,2.727-0.177,3.692-0.534
		c0.967-0.358,1.771-0.753,2.416-1.192c0.644-0.436,1.173-0.833,1.587-1.188c0.415-0.355,0.829-0.536,1.243-0.536
		c0.529,0,0.92,0.196,1.171,0.587l1.727,2.242c-1.518,1.863-3.415,3.228-5.693,4.089c-2.277,0.862-4.682,1.294-7.212,1.294
		c-2.186,0-4.216-0.403-6.09-1.208c-1.875-0.805-3.502-1.972-4.883-3.502c-1.381-1.529-2.467-3.41-3.261-5.641
		s-1.19-4.772-1.19-7.627c0-2.599,0.361-5.003,1.086-7.211c0.726-2.208,1.783-4.111,3.176-5.71c1.392-1.599,3.11-2.847,5.158-3.744
		c2.047-0.897,4.394-1.346,7.039-1.346c2.438,0,4.601,0.397,6.487,1.19c1.886,0.792,3.554,1.915,5.002,3.364L233.254,33.583z"/>
	<path fill="#6D656B" d="M246.951,27.372v22.29c0,2.646,0.609,4.693,1.829,6.143c1.22,1.448,3.059,2.174,5.521,2.174
		c1.795,0,3.485-0.426,5.072-1.277c1.588-0.851,3.049-2.034,4.383-3.554V27.372h6.142v34.953h-3.656
		c-0.875,0-1.428-0.425-1.657-1.276l-0.483-3.761c-1.518,1.679-3.221,3.031-5.106,4.055c-1.887,1.021-4.049,1.535-6.487,1.535
		c-1.91,0-3.594-0.317-5.056-0.949c-1.46-0.633-2.686-1.523-3.675-2.674c-0.988-1.15-1.73-2.542-2.225-4.175
		c-0.495-1.633-0.742-3.438-0.742-5.418v-22.29H246.951z"/>
	<path fill="#6D656B" d="M280.008,62.325V27.372h3.52c0.666,0,1.127,0.126,1.38,0.379s0.426,0.69,0.518,1.311l0.414,5.452
		c1.196-2.438,2.675-4.341,4.435-5.711c1.759-1.367,3.824-2.052,6.193-2.052c0.967,0,1.84,0.109,2.623,0.328
		c0.781,0.218,1.506,0.523,2.175,0.914l-0.794,4.589c-0.162,0.575-0.518,0.862-1.071,0.862c-0.321,0-0.816-0.109-1.483-0.328
		c-0.667-0.218-1.599-0.328-2.795-0.328c-2.14,0-3.928,0.621-5.365,1.863c-1.438,1.242-2.64,3.048-3.606,5.417v22.255H280.008z"/>
	<path fill="#6D656B" d="M307.818,62.325V27.372h3.52c0.667,0,1.128,0.126,1.381,0.379s0.425,0.69,0.517,1.311l0.415,5.452
		c1.195-2.438,2.674-4.341,4.434-5.711c1.76-1.367,3.825-2.052,6.194-2.052c0.966,0,1.84,0.109,2.622,0.328
		c0.782,0.218,1.506,0.523,2.174,0.914l-0.794,4.589c-0.161,0.575-0.518,0.862-1.069,0.862c-0.322,0-0.817-0.109-1.483-0.328
		c-0.668-0.218-1.6-0.328-2.795-0.328c-2.14,0-3.929,0.621-5.366,1.863s-2.639,3.048-3.606,5.417v22.255H307.818z"/>
	<path fill="#6D656B" d="M359.99,62.325h-2.726c-0.599,0-1.081-0.092-1.449-0.275c-0.368-0.185-0.609-0.575-0.725-1.174
		l-0.689-3.243c-0.921,0.827-1.818,1.57-2.692,2.226c-0.874,0.656-1.794,1.208-2.76,1.656c-0.967,0.449-1.996,0.788-3.089,1.018
		s-2.307,0.346-3.64,0.346c-1.358,0-2.627-0.191-3.812-0.571c-1.186-0.38-2.214-0.951-3.088-1.714
		c-0.875-0.761-1.571-1.727-2.089-2.892c-0.518-1.166-0.776-2.543-0.776-4.137c0-1.384,0.379-2.719,1.139-3.998
		c0.76-1.282,1.985-2.419,3.676-3.411c1.691-0.992,3.902-1.806,6.641-2.442c2.737-0.634,6.084-0.951,10.041-0.951v-2.743
		c0-2.731-0.581-4.797-1.743-6.197c-1.161-1.401-2.881-2.102-5.158-2.102c-1.495,0-2.755,0.19-3.777,0.57
		c-1.024,0.379-1.909,0.805-2.657,1.276c-0.747,0.471-1.391,0.897-1.931,1.276c-0.541,0.38-1.076,0.569-1.605,0.569
		c-0.413,0-0.775-0.109-1.086-0.327c-0.312-0.218-0.559-0.489-0.742-0.811l-1.104-1.967c1.933-1.863,4.014-3.255,6.245-4.176
		c2.23-0.919,4.703-1.379,7.417-1.379c1.956,0,3.693,0.322,5.211,0.966c1.519,0.644,2.795,1.541,3.83,2.691
		c1.036,1.15,1.817,2.542,2.347,4.175c0.529,1.634,0.793,3.428,0.793,5.383V62.325z M344.049,58.564
		c1.081,0,2.071-0.109,2.968-0.328c0.897-0.218,1.743-0.529,2.536-0.932c0.794-0.402,1.553-0.891,2.277-1.466
		c0.725-0.573,1.433-1.229,2.122-1.966v-7.212c-2.829,0-5.233,0.179-7.212,0.538s-3.588,0.827-4.831,1.405
		c-1.242,0.579-2.144,1.261-2.706,2.048c-0.563,0.787-0.846,1.666-0.846,2.637c0,0.926,0.149,1.727,0.448,2.396
		c0.3,0.67,0.702,1.22,1.208,1.647c0.506,0.43,1.103,0.742,1.794,0.938C342.496,58.465,343.243,58.564,344.049,58.564z"/>
</g>
<path fill="#821E53" d="M62.915,15.309L38.613,1.279c-2.952-1.705-6.589-1.705-9.542,0L4.771,15.309C1.819,17.013,0,20.163,0,23.572
	v28.061c0,3.41,1.819,6.559,4.771,8.263l24.301,14.03c2.952,1.705,6.589,1.705,9.542,0l24.302-14.03
	c2.952-1.704,4.77-4.853,4.77-8.263V23.572C67.685,20.163,65.866,17.013,62.915,15.309z M33.842,48.039
	c3.864,0,7.228-2.104,9.032-5.222l9.03,5.213c-3.607,6.234-10.341,10.43-18.062,10.43c-11.519,0-20.858-9.337-20.858-20.857
	c0-11.52,9.339-20.858,20.858-20.858c7.721,0,14.455,4.197,18.062,10.431l-9.03,5.213c-1.805-3.119-5.168-5.222-9.032-5.222
	c-5.763,0-10.435,4.672-10.435,10.436S28.079,48.039,33.842,48.039z"/>
<path fill="#C84B85" d="M66.407,56.403c0.824-1.425,1.278-3.065,1.278-4.771V23.572c0-1.705-0.454-3.344-1.278-4.771L33.842,37.603
	L66.407,56.403z"/>
<g>
	<path fill="#AD2F6E" d="M33.842,48.039V37.602l-9.029,5.214C26.617,45.935,29.98,48.039,33.842,48.039z"/>
	<path fill="#AD2F6E" d="M15.78,48.03L1.278,56.403c0.824,1.428,2.017,2.641,3.493,3.492l24.301,14.03
		c1.476,0.852,3.122,1.278,4.77,1.278V58.459C26.123,58.459,19.388,54.264,15.78,48.03z"/>
</g>
<g>
	<path fill="#9E1F63" d="M24.812,32.388c-0.888,1.535-1.405,3.312-1.405,5.214c0,1.901,0.517,3.678,1.405,5.213l9.029-5.214
		L24.812,32.388z"/>
	<path fill="#9E1F63" d="M12.984,37.603c0-3.8,1.021-7.36,2.797-10.428L1.278,18.801C0.456,20.228,0,21.867,0,23.572v28.061
		c0,1.705,0.455,3.344,1.278,4.771L15.78,48.03C14.005,44.961,12.984,41.403,12.984,37.603z"/>
</g>
<g>
	<path fill="#901F5B" d="M24.812,32.388l9.029,5.214V27.167C29.98,27.167,26.617,29.27,24.812,32.388z"/>
	<path fill="#901F5B" d="M33.842,16.744V0c-1.646,0-3.294,0.426-4.77,1.279L4.771,15.309c-1.477,0.852-2.668,2.065-3.493,3.492
		l14.502,8.374C19.389,20.941,26.123,16.744,33.842,16.744z"/>
</g>
<g>
	<path fill="#821E53" d="M33.842,27.167v10.436l9.032-5.214C41.068,29.269,37.706,27.167,33.842,27.167z"/>
	<path fill="#821E53" d="M51.904,27.174l14.502-8.373c-0.824-1.426-2.017-2.641-3.492-3.492L38.613,1.278
		C37.137,0.426,35.49,0,33.842,0v16.744C41.563,16.744,48.297,20.941,51.904,27.174z"/>
</g>
<path fill="#BF3F7C" d="M33.842,37.602v10.437c3.864,0,7.228-2.104,9.032-5.222L33.842,37.602z"/>
<path fill="#BF3F7C" d="M66.406,56.403c-0.823,1.428-2.016,2.641-3.49,3.492l-24.302,14.03c-1.476,0.852-3.124,1.278-4.772,1.278
	V58.459c7.721,0,14.455-4.195,18.062-10.43L66.406,56.403z"/>
</svg>
