<?xml version="1.0" encoding="utf-8"?>
<!DOCTYPE svg PUBLIC "-//W3C//DTD SVG 1.1//EN" "http://www.w3.org/Graphics/SVG/1.1/DTD/svg11.dtd">
<svg version="1.1" xmlns="http://www.w3.org/2000/svg" xmlns:xlink="http://www.w3.org/1999/xlink" x="0px" y="0px" width="500px" height="202.712px" viewBox="0 0 500 202.712" enable-background="new 0 0 500 202.712" xml:space="preserve">
<g>
	<path fill="#40454E" d="M398.67,0c-28.585,0-55.158,11.708-74.304,32.438
		C305.221,11.708,278.629,0,250.058,0c-28.628,0-55.247,11.745-74.384,32.528C156.52,11.779,129.928,0.053,101.331,0.053H0v202.659
		h101.331c28.624,0,55.22-11.735,74.384-32.521c19.15,20.754,45.732,32.471,74.343,32.471h101.331l0.019-101.318
		c0-26.062,21.207-47.264,47.263-47.264c26.051,0,47.254,21.201,47.254,47.264v101.318H500V101.343C500,45.46,454.543,0,398.67,0
		 M250.058,54.079c26.061,0,47.268,21.201,47.268,47.264v47.246h-47.268c-26.058,0-47.272-21.197-47.272-47.246
		C202.785,75.28,224,54.079,250.058,54.079 M54.07,54.123l47.261,0.009c26.062,0,47.245,21.196,47.245,47.252
		c0,26.062-21.183,47.251-47.245,47.251l-47.261,0.009V54.123z"/>
</g>
</svg>
