<svg id="Layer_1" data-name="Layer 1" xmlns="http://www.w3.org/2000/svg" viewBox="0 0 452.18 131"><defs><style>.cls-1{fill:#fff;}.cls-2{fill:#29aae1;}.cls-3{fill:#f05253;}.cls-4{fill:#ef4246;}.cls-5{fill:#2b8fce;}.cls-6{fill:#df373e;}.cls-7{fill:#2c73ba;}.cls-8{fill:#ce2a35;}.cls-9{fill:#2d56a4;}.cls-10{fill:#be202e;}.cls-11{fill:#2b3c90;}</style></defs><title>satelytics_logo_c</title><path id="_Path_" data-name="&lt;Path&gt;" class="cls-1" d="M149.35,78.29c.19,4.19,4.77,5.95,9.22,5.95,4.06,0,8.78-.92,8.78-5.61s-5.62-5.43-10-5.76c-8.31-.71-16.69-3.2-16.69-12.7,0-10.14,8.31-14.41,17.42-14.41,8.57,0,17.47,3.6,17.47,13.88h-9.17c-.52-3.74-4.37-5.36-8.3-5.36s-7.78,2.15-7.78,5.61c0,4.06,4,4.64,8.77,5.16,9.69.86,18,2.75,18,13.49S167.7,92.6,158.67,92.81,140,88.3,140,78.29Z"/><path id="_Compound_Path_" data-name="&lt;Compound Path&gt;" class="cls-1" d="M193.22,92.88c-5.9,0-11.45-3.59-11.45-9.87,0-7.34,5.24-9.75,12.23-9.75a22.41,22.41,0,0,1,8.38,1.44V71.43c0-3.41-3.59-4.59-7.48-4.59a20.65,20.65,0,0,0-9.35,1.88l-1.18-6.42A28.54,28.54,0,0,1,196.11,60c8.12,0,15,2.55,15,11.65V83c0,2.67,0,4.24,2.93,4v5.11c-4.76,1-10,.79-10-4.84C202.25,91.25,197.27,92.88,193.22,92.88ZM195.76,79c-2.75,0-5,.92-5,3.54,0,2.28,1.44,3.59,4.32,3.59s7-1.57,7.33-5.89A17.27,17.27,0,0,0,195.76,79Z"/><path id="_Path_2" data-name="&lt;Path&gt;" class="cls-1" d="M231.77,60.69H242v6.87H231.77v11.7c0,6.55,5.42,6.87,10.66,5l.86,6.94c-10.87,3-20.58,1.23-20.58-11.71V67.56l-6-.58V60.69h6.61l1-9.82h7.33v9.82Z"/><path id="_Compound_Path_2" data-name="&lt;Compound Path&gt;" class="cls-1" d="M277.78,79H256.44c.58,5.16,5,6.28,8.38,6.6a26.89,26.89,0,0,0,11.72-2l1,6.47a29,29,0,0,1-12.27,2.88c-10.6.21-18.07-6.15-18.07-16.83.19-11,8.18-16,16.56-16C275.35,60,280.29,68.21,277.78,79Zm-21.27-5.82h13.86c.19-4.12-2.22-6.55-6.54-6.55s-6.55,2.75-7.34,6.55Z"/><path id="_Path_3" data-name="&lt;Path&gt;" class="cls-1" d="M293.94,44.25V79.92c0,4.84,1.87,5.82,6.29,5.11l.31,6.86c-9.74,1.76-15.63-.65-15.63-12V44.25Z"/><path id="_Path_4" data-name="&lt;Path&gt;" class="cls-1" d="M322.41,95.24c-4,10.27-8.38,15.71-19.83,11.52l1-6.4c5.17,2.29,7.86.32,9.69-4.9l1.18-3.27-13.8-30.56V60.58h9.59l4.25,10.66,4.11,11.65h.19l3.59-11.57,3.74-10.74h9.36v1.05Z"/><path id="_Path_5" data-name="&lt;Path&gt;" class="cls-1" d="M353.05,60.69h10.27v6.87H353.05v11.7c0,6.55,5.42,6.87,10.66,5l.86,6.94C353.7,94.19,344,92.41,344,79.47V67.56L338.05,67V60.69h6.6l1-9.82H353v9.82Z"/><path id="_Path_6" data-name="&lt;Path&gt;" class="cls-1" d="M410,72a6.37,6.37,0,0,0-6.6-4.19,7.72,7.72,0,0,0-8,7.42,8.46,8.46,0,0,0,0,1c0,5.61,3.74,8.91,8,8.91a7.08,7.08,0,0,0,6.73-5.11h8.7c-1.31,8.44-8.44,12.7-15.71,12.76-8.31,0-16.84-5.43-16.84-16.56S394.89,60,403.16,60c7.12,0,14.06,3.74,15.5,12.05H410Z"/><path id="_Path_7" data-name="&lt;Path&gt;" class="cls-1" d="M432.37,82.35c0,2.62,2.55,3.74,5.17,3.74s5.37-.78,5.42-3.59c0-2.36-2.28-2.62-4.51-2.94-6.34-.84-14.59-1.49-14.59-9.16,0-7.07,5.82-10.4,13.55-10.4s14,3.4,13.67,10.08h-8.62c0-2.28-2.29-3.2-4.9-3.2s-4.85,1.18-4.85,3.28,2.49,2.48,4.51,2.67c7.07.84,15.11,1.18,15,9.61-.18,7.49-7.07,10.4-14.19,10.4s-14.41-2.09-14.72-10.47h9.16Z"/><polygon class="cls-1" points="370.52 92.17 379.68 92.17 379.68 92.15 379.68 59.96 370.52 66.38 370.52 92.17"/><path class="cls-1" d="M379.68,52.28v-1.5a4.58,4.58,0,1,0-9.16,0V58.7Z"/><path class="cls-2" d="M0,83v18a8,8,0,0,0,16,0V71.83Z"/><path class="cls-3" d="M16,59.62V32A8,8,0,0,0,0,32V70.83Z"/><path class="cls-4" d="M31.13,49a5,5,0,0,1,5.74,0L42,52.62V8A8,8,0,0,0,26,8V52.62Z"/><path class="cls-5" d="M34,59.23l-8,5.6V123a8,8,0,0,0,16,0V64.83Z"/><path class="cls-6" d="M68,70.83V31a8,8,0,0,0-16,0V59.62Z"/><path class="cls-7" d="M52,71.83V101a8,8,0,0,0,16,0V83Z"/><path class="cls-8" d="M86,83.43l8-5.6V51a8,8,0,0,0-16,0V77.83Z"/><path class="cls-9" d="M88.87,93.63a5,5,0,0,1-5.74,0L78,90v13a8,8,0,0,0,16,0V90Z"/><path class="cls-10" d="M120,59.62V54a8,8,0,0,0-16,0V70.83Z"/><path class="cls-11" d="M104,83v2a8,8,0,0,0,16,0V71.83Z"/></svg>