<svg xmlns="http://www.w3.org/2000/svg" viewBox="0 0 100 87.13">
  <title>icon-heart</title>
  <path d="M49.93,87.13a9.74,9.74,0,0,1-6.81-2.79L8.67,50.18a29.12,29.12,0,0,1,0-41.6A29.87,29.87,0,0,1,29.75,0C37.4,0,44,2.81,49.85,8.58,55.85,2.7,62.38,0,70.12,0a29.83,29.83,0,0,1,21,8.58,29.07,29.07,0,0,1,0,41.61L56.76,84.34A9.76,9.76,0,0,1,49.93,87.13ZM29.75,7.73A22.16,22.16,0,0,0,14.11,14.1a21.37,21.37,0,0,0,0,30.58L48.57,78.85a2.05,2.05,0,0,0,2.74,0L85.75,44.69a21.34,21.34,0,0,0,0-30.59A22.11,22.11,0,0,0,70.12,7.73a19.83,19.83,0,0,0-14.67,6.16L50,20.63l-5.81-6.76A19.84,19.84,0,0,0,29.75,7.73Z" transform="translate(0.06 0)"/>
</svg>
