<svg xmlns="http://www.w3.org/2000/svg" viewBox="0 0 100 87.5">
  <title>icon-stack</title>
  <path d="M4.29,59.3a4.65,4.65,0,0,1,1.79.36h0l43.48,18,43.48-18h0a4.69,4.69,0,0,1,3.59,8.66h0L51.44,87.06h0a4.63,4.63,0,0,1-3.58,0h0L2.49,68.32h0a4.69,4.69,0,0,1,1.79-9M96.71,27.7h0L51.44,46.43h0a4.63,4.63,0,0,1-3.58,0h0L2.49,27.7h0A4.68,4.68,0,0,1,2.5,19h0L47.77.3h0a4.75,4.75,0,0,1,3.58,0h0L96.71,19h0a4.69,4.69,0,0,1,0,8.66m0,20.31h0L51.44,66.74h0a4.63,4.63,0,0,1-3.58,0h0L2.49,48h0a4.69,4.69,0,0,1,1.79-9,4.65,4.65,0,0,1,1.79.36h0l43.48,18,43.48-18h0A4.69,4.69,0,0,1,96.71,48" transform="translate(0.4 0.07)"/>
</svg>
