<svg xmlns="http://www.w3.org/2000/svg" viewBox="0 0 100 93.54">
  <title>icon-skills</title>
  <path d="M97,93.54c-.77-2.44-6.56-2.6-9.15-6.26s-.45-5.54.46-6.41C98.81,74.94,97,93.54,97,93.54M79.46,68l3.46-1.79a2.55,2.55,0,0,1,3.39,1.13l2.87,5.52a2.72,2.72,0,0,1-1,3.55l-2.47,1.49a2.6,2.6,0,0,1-3.5-.86l-3.63-5.74a2.27,2.27,0,0,1,.85-3.3M57.69,40.61c3.56,8.12,6.22,13.78,8.22,17.74H38.31L48.48,40.61ZM10.54,79l6,3.46a1.34,1.34,0,0,1,.1,2.46L8.87,90.22c-1,.72-1.79.26-1.65-1l1-9.08A1.42,1.42,0,0,1,10.54,79M2.09,58.35A2.08,2.08,0,0,1,0,56.26V42.7a2.09,2.09,0,0,1,2.09-2.09h23.4L15.32,58.35ZM49.58,30.27,41.11,45.05l-7.62,13.3L21.68,78.94a2.32,2.32,0,0,1-3.16.86l-6-3.47a2.32,2.32,0,0,1-.85-3.16l8.49-14.82L30.32,40.61,39.55,24.5a2.31,2.31,0,0,1,3.15-.85l6,3.45a2.34,2.34,0,0,1,.85,3.17m28.31,19.9c.14.28.29.54.43.82,0,0,.05.08.07.13,1.84,3.5,3.24,6.2,3.8,7.23,0,.09.09.17.12.23,1.48,2.69-1.41,4.92-3,5.59s-2.54,1.34-5,.13-14.42-29-17.5-36.22S44.46,1.55,47.46.05C49.61-1,57.29,14.16,63.05,23.28c3.29,5.2,8.62,15.09,12.86,23.12.06.11.11.22.16.32q.3.54.57,1.08c.06.1.11.2.16.3l.5.93.27.53.32.61m20,8.18H86.68a8.2,8.2,0,0,0-.7-1.79c-.3-.54-1.16-2.18-2.24-4.24-1.56-3-3.78-7.22-6.17-11.71H97.9A2.1,2.1,0,0,1,100,42.7V56.26a2.09,2.09,0,0,1-2.1,2.09" transform="translate(0)"/>
</svg>
