<?xml version="1.0" encoding="utf-8"?>
<svg version="1.1" xmlns="http://www.w3.org/2000/svg" xmlns:xlink="http://www.w3.org/1999/xlink" x="0px" y="0px" viewBox="0 0 61.2 61.2" style="enable-background:new 0 0 61.2 61.2;" xml:space="preserve">
  <style type="text/css">
    .circle {
      fill: #000;
    }
    .vegan {
      fill: #fff;
    }
  </style>
  <circle class="circle" cx="30.6" cy="30.6" r="30.6" />
	<g>
		<path class="circle" d="M12.9,14.6c-0.1,0.1-0.1,0.2-0.2,0.2c0.3,0.3,0.5,0.7,0.8,1c3.3,3.7,6,7.7,7.9,12.2
			c2.3,5.5,3.8,11.3,5.2,17.2c0.6,2.4,1.1,4.8,1.6,7.2c0.1,0.3,0.3,0.8,0.6,0.9c2.2,0.6,3,0.1,3.3-2.1c0.1-0.3,0.1-0.6,0.2-0.9
			c0.7-3.6,1.3-7.2,2.1-10.8c0.8-3.4,1.9-6.7,3.5-9.8c0.5-0.9,1.1-1.5,2.2-1.6c0.6-0.1,1.1-0.2,1.7-0.3c4.3-1.1,6.6-3.7,7.2-8.1
			c0.2-1.8,0.6-3.6,0.9-5.4c0-0.2,0-0.4,0-0.6c-0.2,0-0.3,0-0.5,0.1c-2.4,0.5-4.8,1.1-7.2,1.6c-4.5,0.8-7,3.7-7.9,8
			c-0.2,1.1,0,2.2,0,3.5c1.8-3.3,3.7-6.3,7.4-7.3c-0.1,0.4-0.2,0.6-0.4,0.9c-3.2,3.3-5.3,7.4-6.9,11.7c-1.4,3.9-2.7,7.8-4,11.7
			c-0.1,0.3-0.3,0.6-0.4,1c-0.5-0.9-0.8-1.7-1-2.6c-1.4-5-2.5-10.1-4.5-14.8c-2-4.7-5.2-8.4-9.3-11.4C14.6,15.3,13.7,15,12.9,14.6z" />
		<path class="vegan" d="M12.9,14.6c0.8,0.4,1.7,0.7,2.4,1.3c4.1,3,7.2,6.7,9.3,11.4c2.1,4.8,3.2,9.8,4.5,14.8c0.2,0.9,0.5,1.7,1,2.6
			c0.1-0.3,0.3-0.6,0.4-1c1.3-3.9,2.6-7.8,4-11.7c1.6-4.3,3.7-8.3,6.9-11.7c0.2-0.2,0.4-0.5,0.4-0.9c-3.7,1.1-5.5,4.1-7.4,7.3
			c0-1.3-0.2-2.4,0-3.5c0.9-4.3,3.4-7.1,7.9-8c2.4-0.4,4.8-1.1,7.2-1.6c0.1,0,0.3,0,0.5-0.1c0,0.2,0,0.4,0,0.6
			c-0.3,1.8-0.7,3.6-0.9,5.4c-0.6,4.3-2.9,7-7.2,8.1c-0.6,0.1-1.1,0.3-1.7,0.3c-1,0.1-1.7,0.7-2.2,1.6c-1.6,3.1-2.7,6.4-3.5,9.8
			c-0.8,3.6-1.4,7.2-2.1,10.8c-0.1,0.3-0.1,0.6-0.2,0.9c-0.4,2.2-1.2,2.7-3.3,2.1c-0.3-0.1-0.5-0.6-0.6-0.9c-0.6-2.4-1-4.8-1.6-7.2
			c-1.4-5.8-2.9-11.6-5.2-17.2c-1.9-4.5-4.6-8.6-7.9-12.2C13.3,15.3,13.1,14.9,12.9,14.6C12.8,14.8,12.9,14.7,12.9,14.6z" />
	</g>
</svg>
