<?xml version="1.0" encoding="utf-8"?>
<!-- Generator: Adobe Illustrator 16.0.0, SVG Export Plug-In . SVG Version: 6.00 Build 0)  -->
<!DOCTYPE svg PUBLIC "-//W3C//DTD SVG 1.1//EN" "http://www.w3.org/Graphics/SVG/1.1/DTD/svg11.dtd">
<svg version="1.1" id="Layer_1" xmlns="http://www.w3.org/2000/svg" xmlns:xlink="http://www.w3.org/1999/xlink" x="0px" y="0px"
	 width="342px" height="33.717px" viewBox="0 0 342 33.717" enable-background="new 0 0 342 33.717" xml:space="preserve">
<g>
	<polygon fill="#FFFFFF" points="339.401,8.385 338.797,8.385 338.797,10.053 338.414,10.053 338.414,8.385 337.808,8.385 
		337.808,8.074 339.401,8.074 	"/>
	<polygon fill="#FFFFFF" points="340.905,9.477 341.444,8.074 342,8.074 342,10.053 341.636,10.053 341.636,8.506 341.626,8.506 
		341.037,10.053 340.77,10.053 340.177,8.506 340.167,8.506 340.167,10.053 339.805,10.053 339.805,8.074 340.367,8.074 	"/>
	<path fill="#FFFFFF" d="M109.544,8.074v5.662h0.04c0.235-0.617,0.658-1.111,1.262-1.488c0.605-0.375,1.271-0.562,1.993-0.562
		c0.711,0,1.307,0.092,1.788,0.275c0.478,0.186,0.863,0.445,1.152,0.779c0.289,0.336,0.496,0.75,0.613,1.234
		c0.12,0.488,0.177,1.035,0.177,1.639v6.555h-1.244v-6.355c0-0.434-0.038-0.84-0.118-1.215c-0.076-0.375-0.217-0.701-0.413-0.979
		c-0.196-0.275-0.464-0.492-0.802-0.648c-0.332-0.16-0.752-0.24-1.254-0.24c-0.497,0-0.94,0.092-1.329,0.268
		c-0.39,0.178-0.717,0.422-0.987,0.732c-0.27,0.309-0.48,0.674-0.632,1.104c-0.15,0.426-0.234,0.893-0.246,1.391v5.943h-1.245V8.074
		H109.544z"/>
	<path fill="#FFFFFF" d="M125.262,12.119c0.6,0.291,1.104,0.68,1.511,1.166c0.409,0.488,0.716,1.055,0.929,1.705
		c0.209,0.654,0.314,1.348,0.314,2.084c0,0.738-0.105,1.434-0.314,2.082c-0.213,0.652-0.52,1.221-0.929,1.707
		c-0.406,0.488-0.911,0.873-1.511,1.154c-0.598,0.285-1.287,0.426-2.063,0.426c-0.775,0-1.464-0.141-2.061-0.426
		c-0.601-0.281-1.102-0.666-1.51-1.154c-0.408-0.486-0.718-1.055-0.93-1.707c-0.209-0.648-0.314-1.344-0.314-2.082
		c0-0.736,0.105-1.43,0.314-2.084c0.212-0.65,0.521-1.217,0.93-1.705c0.408-0.486,0.909-0.875,1.51-1.166
		c0.597-0.289,1.285-0.432,2.061-0.432C123.975,11.688,124.664,11.83,125.262,12.119 M121.64,13.107
		c-0.447,0.25-0.819,0.578-1.115,0.986c-0.297,0.406-0.521,0.873-0.672,1.393c-0.151,0.518-0.225,1.049-0.225,1.588
		s0.073,1.068,0.225,1.59c0.151,0.52,0.375,0.982,0.672,1.391c0.296,0.406,0.668,0.736,1.115,0.988
		c0.449,0.248,0.966,0.373,1.559,0.373s1.113-0.125,1.56-0.373c0.447-0.252,0.819-0.582,1.115-0.988
		c0.299-0.408,0.52-0.871,0.672-1.391c0.15-0.521,0.228-1.051,0.228-1.59s-0.077-1.07-0.228-1.588
		c-0.152-0.52-0.373-0.986-0.672-1.393c-0.296-0.408-0.668-0.736-1.115-0.986c-0.446-0.252-0.967-0.377-1.56-0.377
		S122.089,12.855,121.64,13.107"/>
	<path fill="#FFFFFF" d="M131.017,11.98v1.717h0.059c0.329-0.629,0.76-1.123,1.29-1.479c0.534-0.354,1.216-0.533,2.043-0.533
		c0.673,0,1.283,0.166,1.828,0.494c0.546,0.328,0.911,0.83,1.098,1.5c0.301-0.67,0.746-1.172,1.339-1.5s1.225-0.494,1.897-0.494
		c2.248,0,3.373,1.193,3.373,3.572v6.91h-1.242v-6.85c0-0.842-0.178-1.484-0.534-1.926c-0.354-0.439-0.979-0.662-1.875-0.662
		c-0.539,0-0.988,0.104-1.341,0.309c-0.357,0.205-0.641,0.475-0.852,0.818c-0.209,0.342-0.356,0.734-0.443,1.174
		c-0.083,0.439-0.128,0.898-0.128,1.371v5.766h-1.243v-6.91c0-0.342-0.036-0.666-0.106-0.977c-0.073-0.309-0.193-0.578-0.355-0.809
		c-0.167-0.229-0.387-0.41-0.664-0.543c-0.274-0.131-0.611-0.199-1.004-0.199c-0.527,0-0.985,0.098-1.372,0.289
		c-0.388,0.189-0.705,0.453-0.948,0.787c-0.243,0.336-0.424,0.732-0.541,1.184c-0.12,0.455-0.18,0.953-0.18,1.494v5.684h-1.243
		V11.98H131.017z"/>
	<path fill="#FFFFFF" d="M147.238,18.801c0.128,0.482,0.327,0.91,0.604,1.293c0.278,0.381,0.625,0.697,1.044,0.949
		c0.423,0.248,0.93,0.373,1.522,0.373c0.909,0,1.619-0.236,2.132-0.711c0.512-0.473,0.867-1.104,1.064-1.895h1.243
		c-0.264,1.158-0.746,2.053-1.448,2.684c-0.705,0.635-1.702,0.949-2.991,0.949c-0.804,0-1.497-0.141-2.083-0.426
		c-0.585-0.281-1.063-0.67-1.432-1.164c-0.369-0.492-0.64-1.066-0.817-1.717c-0.18-0.652-0.265-1.34-0.265-2.062
		c0-0.672,0.085-1.328,0.265-1.973c0.178-0.645,0.448-1.223,0.817-1.727c0.368-0.51,0.847-0.916,1.432-1.225
		c0.586-0.311,1.279-0.463,2.083-0.463c0.815,0,1.513,0.164,2.092,0.492c0.581,0.328,1.047,0.758,1.411,1.293
		c0.36,0.531,0.62,1.145,0.78,1.834c0.156,0.693,0.222,1.393,0.196,2.104h-7.833C147.055,17.857,147.113,18.322,147.238,18.801
		 M153.399,15.002c-0.152-0.434-0.368-0.818-0.645-1.154c-0.276-0.334-0.61-0.604-1.005-0.811c-0.395-0.203-0.843-0.305-1.342-0.305
		c-0.513,0-0.967,0.102-1.363,0.305c-0.394,0.207-0.73,0.477-1.005,0.811c-0.275,0.336-0.498,0.725-0.663,1.166
		c-0.162,0.439-0.272,0.891-0.322,1.35h6.59C153.631,15.889,153.547,15.436,153.399,15.002"/>
	<path fill="#FFFFFF" d="M163.197,11.98v2.389h0.041c0.313-0.828,0.806-1.467,1.471-1.914c0.661-0.447,1.455-0.65,2.377-0.611v1.244
		c-0.565-0.025-1.079,0.049-1.538,0.227c-0.463,0.178-0.862,0.43-1.194,0.76c-0.337,0.328-0.596,0.721-0.782,1.174
		c-0.183,0.455-0.276,0.951-0.276,1.492v5.428h-1.243V11.98H163.197z"/>
	<path fill="#FFFFFF" d="M168.961,18.801c0.124,0.482,0.328,0.91,0.602,1.293c0.276,0.381,0.623,0.697,1.047,0.949
		c0.421,0.248,0.93,0.373,1.521,0.373c0.904,0,1.616-0.236,2.13-0.711c0.513-0.473,0.865-1.104,1.067-1.895h1.241
		c-0.263,1.158-0.746,2.053-1.452,2.684c-0.703,0.635-1.698,0.949-2.986,0.949c-0.804,0-1.5-0.141-2.084-0.426
		c-0.586-0.281-1.062-0.67-1.431-1.164c-0.37-0.492-0.641-1.066-0.819-1.717c-0.18-0.652-0.268-1.34-0.268-2.062
		c0-0.672,0.088-1.328,0.268-1.973c0.179-0.645,0.449-1.223,0.819-1.727c0.369-0.51,0.845-0.916,1.431-1.225
		c0.584-0.311,1.28-0.463,2.084-0.463c0.813,0,1.513,0.164,2.092,0.492c0.578,0.328,1.047,0.758,1.408,1.293
		c0.364,0.531,0.624,1.145,0.781,1.834c0.157,0.693,0.224,1.393,0.198,2.104h-7.837C168.773,17.857,168.836,18.322,168.961,18.801
		 M175.117,15.002c-0.15-0.434-0.362-0.818-0.639-1.154c-0.277-0.334-0.613-0.604-1.008-0.811c-0.396-0.203-0.842-0.305-1.34-0.305
		c-0.516,0-0.969,0.102-1.364,0.305c-0.395,0.207-0.729,0.477-1.006,0.811c-0.277,0.336-0.497,0.725-0.661,1.166
		c-0.166,0.439-0.273,0.891-0.326,1.35h6.593C175.351,15.889,175.27,15.436,175.117,15.002"/>
	<path fill="#FFFFFF" d="M179.512,11.98v1.717h0.054c0.329-0.629,0.761-1.123,1.295-1.479c0.533-0.354,1.214-0.533,2.042-0.533
		c0.674,0,1.278,0.166,1.826,0.494c0.547,0.328,0.91,0.83,1.099,1.5c0.3-0.67,0.747-1.172,1.339-1.5
		c0.594-0.328,1.222-0.494,1.896-0.494c2.254,0,3.374,1.193,3.374,3.572v6.91h-1.244v-6.85c0-0.842-0.176-1.484-0.533-1.926
		c-0.354-0.439-0.98-0.662-1.873-0.662c-0.541,0-0.988,0.104-1.34,0.309c-0.358,0.205-0.643,0.475-0.851,0.818
		c-0.21,0.342-0.358,0.734-0.445,1.174c-0.086,0.439-0.13,0.898-0.13,1.371v5.766h-1.239v-6.91c0-0.342-0.036-0.666-0.109-0.977
		c-0.071-0.309-0.19-0.578-0.355-0.809c-0.164-0.229-0.384-0.41-0.661-0.543c-0.276-0.131-0.612-0.199-1.008-0.199
		c-0.527,0-0.981,0.098-1.37,0.289c-0.389,0.189-0.703,0.453-0.95,0.787c-0.241,0.336-0.424,0.732-0.541,1.184
		c-0.118,0.455-0.179,0.953-0.179,1.494v5.684h-1.242V11.98H179.512z"/>
	<path fill="#FFFFFF" d="M201.149,12.119c0.6,0.291,1.099,0.68,1.508,1.166c0.411,0.488,0.718,1.055,0.93,1.705
		c0.209,0.654,0.315,1.348,0.315,2.084c0,0.738-0.106,1.434-0.315,2.082c-0.212,0.652-0.519,1.221-0.93,1.707
		c-0.409,0.488-0.908,0.873-1.508,1.154c-0.599,0.285-1.285,0.426-2.062,0.426c-0.779,0-1.465-0.141-2.062-0.426
		c-0.6-0.281-1.102-0.666-1.51-1.154c-0.408-0.486-0.717-1.055-0.929-1.707c-0.211-0.648-0.315-1.344-0.315-2.082
		c0-0.736,0.104-1.43,0.315-2.084c0.212-0.65,0.521-1.217,0.929-1.705c0.408-0.486,0.91-0.875,1.51-1.166
		c0.598-0.289,1.283-0.432,2.062-0.432C199.864,11.688,200.551,11.83,201.149,12.119 M197.528,13.107
		c-0.45,0.25-0.818,0.578-1.118,0.986c-0.296,0.406-0.52,0.873-0.669,1.393c-0.152,0.518-0.227,1.049-0.227,1.588
		s0.074,1.068,0.227,1.59c0.149,0.52,0.373,0.982,0.669,1.391c0.3,0.406,0.668,0.736,1.118,0.988
		c0.447,0.248,0.968,0.373,1.559,0.373c0.592,0,1.112-0.125,1.56-0.373c0.445-0.252,0.818-0.582,1.112-0.988
		c0.298-0.408,0.52-0.871,0.673-1.391c0.152-0.521,0.226-1.051,0.226-1.59s-0.073-1.07-0.226-1.588
		c-0.153-0.52-0.375-0.986-0.673-1.393c-0.294-0.408-0.667-0.736-1.112-0.986c-0.447-0.252-0.968-0.377-1.56-0.377
		C198.496,12.73,197.976,12.855,197.528,13.107"/>
	<path fill="#FFFFFF" d="M213.575,22.168v-1.936h-0.043c-0.129,0.33-0.324,0.631-0.581,0.908c-0.258,0.275-0.548,0.508-0.877,0.701
		c-0.332,0.189-0.682,0.336-1.057,0.443c-0.377,0.107-0.746,0.156-1.115,0.156c-0.777,0-1.449-0.139-2.023-0.424
		c-0.573-0.281-1.049-0.67-1.43-1.164c-0.382-0.492-0.666-1.066-0.85-1.717s-0.277-1.34-0.277-2.062s0.094-1.412,0.277-2.062
		c0.184-0.652,0.468-1.223,0.85-1.717c0.381-0.492,0.856-0.885,1.43-1.176c0.574-0.289,1.246-0.434,2.023-0.434
		c0.381,0,0.752,0.047,1.115,0.141c0.362,0.09,0.699,0.23,1.015,0.422c0.319,0.191,0.597,0.424,0.84,0.701s0.432,0.6,0.563,0.967
		h0.037V8.074h1.245v14.094H213.575z M206.755,18.645c0.125,0.518,0.322,0.982,0.59,1.391c0.271,0.406,0.617,0.74,1.036,0.996
		c0.425,0.256,0.929,0.385,1.521,0.385c0.658,0,1.215-0.129,1.668-0.385c0.454-0.256,0.82-0.59,1.104-0.996
		c0.283-0.408,0.484-0.873,0.613-1.391c0.125-0.52,0.185-1.045,0.185-1.57c0-0.527-0.06-1.049-0.185-1.566
		c-0.129-0.523-0.33-0.984-0.613-1.395c-0.284-0.406-0.65-0.74-1.104-0.998c-0.453-0.256-1.01-0.385-1.668-0.385
		c-0.593,0-1.097,0.129-1.521,0.385c-0.419,0.258-0.766,0.592-1.036,0.998c-0.268,0.41-0.465,0.871-0.59,1.395
		c-0.123,0.518-0.188,1.039-0.188,1.566C206.566,17.6,206.632,18.125,206.755,18.645"/>
	<path fill="#FFFFFF" d="M218.032,18.801c0.124,0.482,0.327,0.91,0.601,1.293c0.277,0.381,0.626,0.697,1.046,0.949
		c0.424,0.248,0.93,0.373,1.521,0.373c0.908,0,1.618-0.236,2.13-0.711c0.516-0.473,0.871-1.104,1.068-1.895h1.243
		c-0.264,1.158-0.747,2.053-1.448,2.684c-0.709,0.635-1.703,0.949-2.993,0.949c-0.804,0-1.493-0.141-2.084-0.426
		c-0.583-0.281-1.061-0.67-1.428-1.164c-0.371-0.492-0.643-1.066-0.819-1.717c-0.177-0.652-0.268-1.34-0.268-2.062
		c0-0.672,0.091-1.328,0.268-1.973s0.448-1.223,0.819-1.727c0.367-0.51,0.845-0.916,1.428-1.225c0.591-0.311,1.28-0.463,2.084-0.463
		c0.816,0,1.515,0.164,2.093,0.492s1.048,0.758,1.412,1.293c0.36,0.531,0.621,1.145,0.779,1.834
		c0.157,0.693,0.224,1.393,0.195,2.104h-7.834C217.845,17.857,217.908,18.322,218.032,18.801 M224.192,15.002
		c-0.154-0.434-0.367-0.818-0.643-1.154c-0.275-0.334-0.614-0.604-1.011-0.811c-0.392-0.203-0.841-0.305-1.34-0.305
		c-0.511,0-0.965,0.102-1.359,0.305c-0.396,0.207-0.732,0.477-1.01,0.811c-0.276,0.336-0.493,0.725-0.66,1.166
		c-0.167,0.439-0.271,0.891-0.325,1.35h6.59C224.425,15.889,224.34,15.436,224.192,15.002"/>
	<rect x="227.465" y="8.074" fill="#FFFFFF" width="1.243" height="14.094"/>
	<path fill="#FFFFFF" d="M232.312,10.066h-1.242V8.074h1.242V10.066z M232.312,22.168h-1.242V11.98h1.242V22.168z"/>
	<path fill="#FFFFFF" d="M235.893,11.98v1.758h0.036c0.241-0.619,0.66-1.113,1.268-1.49c0.604-0.375,1.271-0.562,1.99-0.562
		c0.715,0,1.309,0.092,1.786,0.275c0.482,0.186,0.867,0.445,1.158,0.781c0.289,0.334,0.492,0.748,0.609,1.232
		c0.12,0.488,0.178,1.035,0.178,1.639v6.555h-1.238v-6.357c0-0.432-0.044-0.838-0.122-1.213c-0.081-0.375-0.218-0.701-0.412-0.977
		c-0.197-0.279-0.466-0.496-0.803-0.652c-0.337-0.16-0.754-0.238-1.253-0.238c-0.498,0-0.941,0.092-1.333,0.268
		c-0.387,0.178-0.714,0.422-0.985,0.732c-0.271,0.309-0.482,0.676-0.632,1.104c-0.152,0.428-0.238,0.893-0.247,1.391v5.943h-1.243
		V11.98H235.893z"/>
	<path fill="#FFFFFF" d="M253.604,23.371c-0.164,0.605-0.422,1.119-0.779,1.539c-0.354,0.42-0.818,0.742-1.392,0.967
		c-0.571,0.223-1.271,0.334-2.1,0.334c-0.519,0-1.016-0.059-1.5-0.178c-0.49-0.115-0.928-0.301-1.315-0.553
		c-0.388-0.246-0.712-0.566-0.968-0.957c-0.257-0.387-0.403-0.848-0.444-1.391h1.243c0.064,0.383,0.195,0.701,0.387,0.957
		c0.19,0.258,0.424,0.467,0.694,0.623c0.269,0.156,0.564,0.271,0.892,0.344c0.332,0.074,0.667,0.113,1.012,0.113
		c1.157,0,1.99-0.332,2.504-0.992c0.513-0.654,0.771-1.604,0.771-2.84v-1.383h-0.041c-0.291,0.631-0.716,1.141-1.272,1.521
		c-0.559,0.381-1.214,0.57-1.962,0.57c-0.817,0-1.515-0.135-2.096-0.404c-0.576-0.27-1.055-0.641-1.432-1.113
		c-0.372-0.475-0.646-1.029-0.817-1.668c-0.169-0.641-0.258-1.318-0.258-2.043c0-0.697,0.104-1.359,0.307-1.984
		c0.205-0.625,0.499-1.172,0.888-1.639c0.39-0.467,0.869-0.836,1.441-1.104c0.576-0.27,1.228-0.406,1.967-0.406
		c0.374,0,0.739,0.053,1.074,0.158c0.332,0.107,0.64,0.252,0.916,0.445c0.276,0.191,0.526,0.41,0.74,0.66
		c0.217,0.252,0.386,0.514,0.504,0.789h0.041V11.98h1.24v9.357C253.85,22.088,253.77,22.766,253.604,23.371 M250.753,20.658
		c0.409-0.23,0.753-0.535,1.026-0.908c0.276-0.375,0.482-0.807,0.623-1.295c0.139-0.486,0.207-0.986,0.207-1.498
		c0-0.502-0.062-1-0.179-1.502c-0.118-0.5-0.309-0.953-0.572-1.361s-0.602-0.736-1.016-0.986c-0.412-0.252-0.919-0.377-1.509-0.377
		c-0.599,0-1.104,0.123-1.521,0.367c-0.425,0.242-0.77,0.562-1.046,0.957c-0.279,0.393-0.482,0.846-0.604,1.352
		c-0.123,0.506-0.188,1.023-0.188,1.551c0,0.512,0.067,1.012,0.199,1.498c0.132,0.488,0.335,0.92,0.612,1.295
		c0.272,0.373,0.624,0.678,1.047,0.908c0.419,0.229,0.916,0.344,1.5,0.344C249.875,21.002,250.346,20.887,250.753,20.658"/>
	<path fill="#FFFFFF" d="M269.523,22.168v-1.936h-0.038c-0.132,0.33-0.328,0.631-0.585,0.908c-0.255,0.275-0.55,0.508-0.877,0.701
		c-0.329,0.189-0.681,0.336-1.056,0.443c-0.374,0.107-0.746,0.156-1.116,0.156c-0.776,0-1.45-0.139-2.023-0.424
		c-0.573-0.281-1.049-0.67-1.432-1.164c-0.382-0.492-0.666-1.066-0.846-1.717c-0.187-0.65-0.276-1.34-0.276-2.062
		s0.09-1.412,0.276-2.062c0.18-0.652,0.464-1.223,0.846-1.717c0.383-0.492,0.858-0.885,1.432-1.176
		c0.573-0.289,1.247-0.434,2.023-0.434c0.384,0,0.757,0.047,1.116,0.141c0.36,0.09,0.698,0.23,1.018,0.422
		c0.315,0.191,0.593,0.424,0.838,0.701c0.244,0.277,0.43,0.6,0.562,0.967h0.037V8.074h1.243v14.094H269.523z M262.704,18.645
		c0.125,0.518,0.32,0.982,0.591,1.391c0.27,0.406,0.614,0.74,1.039,0.996c0.419,0.256,0.93,0.385,1.518,0.385
		c0.66,0,1.214-0.129,1.667-0.385c0.459-0.256,0.824-0.59,1.105-0.996c0.283-0.408,0.488-0.873,0.613-1.391
		c0.125-0.52,0.185-1.045,0.185-1.57c0-0.527-0.06-1.049-0.185-1.566c-0.125-0.523-0.33-0.984-0.613-1.395
		c-0.281-0.406-0.646-0.74-1.105-0.998c-0.453-0.256-1.007-0.385-1.667-0.385c-0.588,0-1.099,0.129-1.518,0.385
		c-0.425,0.258-0.77,0.592-1.039,0.998c-0.271,0.41-0.466,0.871-0.591,1.395c-0.125,0.518-0.186,1.039-0.186,1.566
		C262.519,17.6,262.579,18.125,262.704,18.645"/>
	<path fill="#FFFFFF" d="M273.984,18.801c0.125,0.482,0.322,0.91,0.599,1.293c0.274,0.381,0.627,0.697,1.046,0.949
		c0.422,0.248,0.927,0.373,1.52,0.373c0.912,0,1.621-0.236,2.135-0.711c0.512-0.473,0.868-1.104,1.064-1.895h1.247
		c-0.268,1.158-0.752,2.053-1.454,2.684c-0.704,0.635-1.698,0.949-2.992,0.949c-0.803,0-1.495-0.141-2.08-0.426
		c-0.585-0.281-1.064-0.67-1.433-1.164c-0.365-0.492-0.64-1.066-0.814-1.717c-0.183-0.652-0.269-1.34-0.269-2.062
		c0-0.672,0.086-1.328,0.269-1.973c0.175-0.645,0.449-1.223,0.814-1.727c0.368-0.51,0.848-0.916,1.433-1.225
		c0.585-0.311,1.277-0.463,2.08-0.463c0.819,0,1.515,0.164,2.093,0.492c0.582,0.328,1.051,0.758,1.412,1.293
		c0.358,0.531,0.621,1.145,0.78,1.834c0.161,0.693,0.223,1.393,0.199,2.104h-7.838C273.795,17.857,273.855,18.322,273.984,18.801
		 M280.141,15.002c-0.153-0.434-0.365-0.818-0.643-1.154c-0.279-0.334-0.609-0.604-1.005-0.811
		c-0.396-0.203-0.843-0.305-1.345-0.305c-0.513,0-0.967,0.102-1.361,0.305c-0.396,0.207-0.729,0.477-1.004,0.811
		c-0.277,0.336-0.497,0.725-0.665,1.166c-0.161,0.439-0.271,0.891-0.323,1.35h6.594C280.376,15.889,280.292,15.436,280.141,15.002"
		/>
	<rect x="283.418" y="8.074" fill="#FFFFFF" width="1.244" height="14.094"/>
	<path fill="#FFFFFF" d="M288.263,10.066h-1.244V8.074h1.244V10.066z M288.263,22.168h-1.244V11.98h1.244V22.168z"/>
	<polygon fill="#FFFFFF" points="290.941,11.98 294.139,20.926 294.182,20.926 297.337,11.98 298.622,11.98 294.811,22.168 
		293.49,22.168 289.564,11.98 	"/>
	<path fill="#FFFFFF" d="M300.459,18.801c0.121,0.482,0.324,0.91,0.602,1.293c0.275,0.381,0.623,0.697,1.047,0.949
		c0.419,0.248,0.927,0.373,1.521,0.373c0.903,0,1.617-0.236,2.13-0.711c0.513-0.473,0.87-1.104,1.067-1.895h1.243
		c-0.264,1.158-0.746,2.053-1.448,2.684c-0.709,0.635-1.704,0.949-2.992,0.949c-0.803,0-1.499-0.141-2.083-0.426
		c-0.586-0.281-1.062-0.67-1.431-1.164c-0.372-0.492-0.644-1.066-0.824-1.717c-0.176-0.652-0.265-1.34-0.265-2.062
		c0-0.672,0.089-1.328,0.265-1.973c0.181-0.645,0.452-1.223,0.824-1.727c0.369-0.51,0.845-0.916,1.431-1.225
		c0.584-0.311,1.28-0.463,2.083-0.463c0.812,0,1.514,0.164,2.091,0.492c0.579,0.328,1.049,0.758,1.411,1.293
		c0.362,0.531,0.621,1.145,0.778,1.834c0.16,0.693,0.226,1.393,0.197,2.104h-7.836C300.27,17.857,300.335,18.322,300.459,18.801
		 M306.62,15.002c-0.156-0.434-0.367-0.818-0.645-1.154c-0.276-0.334-0.613-0.604-1.009-0.811c-0.393-0.203-0.841-0.305-1.339-0.305
		c-0.516,0-0.966,0.102-1.362,0.305c-0.395,0.207-0.731,0.477-1.01,0.811c-0.276,0.336-0.494,0.725-0.658,1.166
		c-0.166,0.439-0.276,0.891-0.328,1.35h6.595C306.849,15.889,306.768,15.436,306.62,15.002"/>
	<path fill="#FFFFFF" d="M311.004,11.98v2.389h0.042c0.315-0.828,0.801-1.467,1.467-1.914c0.665-0.447,1.461-0.65,2.383-0.611v1.244
		c-0.57-0.025-1.082,0.049-1.544,0.227c-0.46,0.178-0.856,0.43-1.192,0.76c-0.337,0.328-0.599,0.721-0.78,1.174
		c-0.184,0.455-0.276,0.951-0.276,1.492v5.428h-1.246V11.98H311.004z"/>
	<path fill="#FFFFFF" d="M316.77,18.801c0.123,0.482,0.323,0.91,0.601,1.293c0.277,0.381,0.623,0.697,1.047,0.949
		c0.422,0.248,0.927,0.373,1.521,0.373c0.904,0,1.618-0.236,2.131-0.711c0.512-0.473,0.868-1.104,1.065-1.895h1.24
		c-0.259,1.158-0.741,2.053-1.446,2.684c-0.706,0.635-1.703,0.949-2.99,0.949c-0.804,0-1.498-0.141-2.084-0.426
		c-0.587-0.281-1.062-0.67-1.43-1.164c-0.371-0.492-0.643-1.066-0.819-1.717c-0.178-0.652-0.267-1.34-0.267-2.062
		c0-0.672,0.089-1.328,0.267-1.973c0.177-0.645,0.448-1.223,0.819-1.727c0.368-0.51,0.843-0.916,1.43-1.225
		c0.586-0.311,1.28-0.463,2.084-0.463c0.814,0,1.512,0.164,2.089,0.492c0.581,0.328,1.053,0.758,1.413,1.293
		c0.362,0.531,0.624,1.145,0.781,1.834c0.153,0.693,0.224,1.393,0.195,2.104h-7.837C316.579,17.857,316.646,18.322,316.77,18.801
		 M322.928,15.002c-0.156-0.434-0.369-0.818-0.642-1.154c-0.277-0.334-0.614-0.604-1.01-0.811c-0.394-0.203-0.841-0.305-1.339-0.305
		c-0.515,0-0.967,0.102-1.362,0.305c-0.394,0.207-0.73,0.477-1.007,0.811c-0.279,0.336-0.498,0.725-0.659,1.166
		c-0.17,0.439-0.277,0.891-0.33,1.35h6.594C323.159,15.889,323.079,15.436,322.928,15.002"/>
	<path fill="#FFFFFF" d="M333.979,22.168v-1.936h-0.04c-0.131,0.33-0.327,0.631-0.583,0.908c-0.254,0.275-0.554,0.508-0.877,0.701
		c-0.328,0.189-0.682,0.336-1.06,0.443c-0.373,0.107-0.743,0.156-1.113,0.156c-0.777,0-1.448-0.139-2.025-0.424
		c-0.57-0.281-1.046-0.67-1.427-1.164c-0.382-0.492-0.666-1.066-0.85-1.717c-0.185-0.65-0.278-1.34-0.278-2.062
		s0.094-1.412,0.278-2.062c0.184-0.652,0.468-1.223,0.85-1.717c0.381-0.492,0.856-0.885,1.427-1.176
		c0.577-0.289,1.248-0.434,2.025-0.434c0.382,0,0.756,0.047,1.113,0.141c0.365,0.09,0.702,0.23,1.022,0.422
		c0.314,0.191,0.592,0.424,0.836,0.701c0.242,0.277,0.432,0.6,0.561,0.967h0.038V8.074h1.246v14.094H333.979z M327.159,18.645
		c0.125,0.518,0.322,0.982,0.591,1.391c0.268,0.406,0.616,0.74,1.036,0.996c0.423,0.256,0.929,0.385,1.521,0.385
		c0.659,0,1.213-0.129,1.668-0.385c0.456-0.256,0.821-0.59,1.104-0.996c0.283-0.408,0.488-0.873,0.617-1.391
		c0.123-0.52,0.182-1.045,0.182-1.57c0-0.527-0.059-1.049-0.182-1.566c-0.129-0.523-0.334-0.984-0.617-1.395
		c-0.282-0.406-0.647-0.74-1.104-0.998c-0.455-0.256-1.009-0.385-1.668-0.385c-0.592,0-1.098,0.129-1.521,0.385
		c-0.42,0.258-0.769,0.592-1.036,0.998c-0.269,0.41-0.466,0.871-0.591,1.395c-0.125,0.518-0.188,1.039-0.188,1.566
		C326.972,17.6,327.034,18.125,327.159,18.645"/>
	<rect x="337.809" y="20.072" fill="#FFFFFF" width="1.658" height="2.096"/>
	<path fill="#FFFFFF" d="M18.989,26.059c-7.425,0-8.793-0.475-10.462-5.297h11.016l0.757-7.189H9.282
		c2.554-4.492,3.968-5.344,11.58-5.344l0.806-7.66h-4.681c-8.891,0-15.908,7.377-16.876,16.598
		c-0.965,9.176,4.502,16.553,13.391,16.553h4.683L18.989,26.059z"/>
	<path fill="#FFFFFF" d="M46.129,22.273c0.437-4.16-2.711-4.822-5.62-5.486l0.012-0.094c3.772-0.379,5.956-2.693,6.394-6.857
		C47.572,3.596,43.363,0,36.837,0C29.743,0,24.6,4.398,23.77,12.297l-2.251,21.422h8.604l2.256-21.471
		c0.354-3.355,1.478-4.586,3.463-4.586c1.324,0,2.851,0.756,2.654,2.646c-0.274,2.602-1.855,3.264-4.792,3.312l-0.785,7.471
		c3.592,0,4.898,0.615,4.69,2.602l-1.053,10.025h8.37L46.129,22.273z"/>
	<polygon fill="#FFFFFF" points="51.453,0.568 47.969,33.717 56.196,33.717 59.681,0.568 	"/>
	<g>
		<path fill="#FFFFFF" d="M79.767,26.059c-7.425,0-8.793-0.475-10.46-5.297h11.018l0.753-7.189H70.06
			c2.552-4.492,3.966-5.344,11.582-5.344l0.803-7.66h-4.682c-8.891,0-15.907,7.377-16.875,16.598
			c-0.966,9.176,4.5,16.553,13.392,16.553h4.68L79.767,26.059z"/>
	</g>
	<rect x="95.089" y="2.127" fill="#FFFFFF" width="0.567" height="30.033"/>
</g>
</svg>
